<svg xmlns="http://www.w3.org/2000/svg" viewBox="0 0 512 512" role="img" aria-label="CINEFESP">
  <defs>
    <linearGradient id="bg" x1="86" y1="54" x2="426" y2="458" gradientUnits="userSpaceOnUse">
      <stop offset="0" stop-color="#164d2a"/>
      <stop offset="0.55" stop-color="#0b2d18"/>
      <stop offset="1" stop-color="#061109"/>
    </linearGradient>
    <linearGradient id="ticket" x1="111" y1="126" x2="401" y2="386" gradientUnits="userSpaceOnUse">
      <stop offset="0" stop-color="#ffffff"/>
      <stop offset="1" stop-color="#d9f6df"/>
    </linearGradient>
  </defs>

  <rect width="512" height="512" rx="112" fill="url(#bg)"/>
  <path
    d="M112 166c0-22 18-40 40-40h208c22 0 40 18 40 40v42c-28 0-50 22-50 50s22 50 50 50v38c0 22-18 40-40 40H152c-22 0-40-18-40-40v-38c28 0 50-22 50-50s-22-50-50-50v-42Z"
    fill="url(#ticket)"
  />
  <path
    d="M235 206c0-14 16-23 28-15l76 48c12 8 12 26 0 34l-76 48c-12 8-28-1-28-15V206Z"
    fill="#0b2d18"
  />
  <path d="M196 153v206" stroke="#0b2d18" stroke-width="18" stroke-linecap="round" stroke-dasharray="3 31"/>
  <circle cx="142" cy="258" r="18" fill="#0b2d18"/>
  <circle cx="370" cy="258" r="18" fill="#0b2d18"/>
</svg>
